<svg xmlns="http://www.w3.org/2000/svg" width="512" height="512"><path d="M364.33 158.24l-2.92-1c-.81-.26-1.58-.52-1.74-.58s-2.23-.71-6.59-2.08l-1.7-.54c-.61-.2-2.4-.74-3.92-1.2-.74-.22-1.47-.44-1.62-.5l-1-.3c-.4-.11-.92-.27-1.14-.35l-2.3-.69-2.36-.69c-.61-.2-.61-.2-2.42-.71-.87-.24-1.62-.47-1.66-.48s-.47-.15-1-.28l-1.17-.34-.58-.18c-.17-.05-.92-.27-1.68-.47-1.4-.38-1.54-.42-2.36-.68l-2.09-.59c-.9-.24-1.77-.49-1.91-.54l-1-.29c-3.46-1-4.5-1.26-4.62-1.3s-.5-.15-1-.27l-.95-.26c-.07 0-.8-.25-1.6-.47-1.35-.39-1.67-.48-2.47-.73l-1.17-.34-1.53-.45c-.35-.12-.93-.29-1.28-.38l-.85-.26-1-.31-1.15-.34-4.74-1.52c-1.94-.64-8-2.87-9.5-3.51l-2-.83c-.56-.23-3.09-1.41-3.94-1.84l-.82-.4a1.21 1.21 0 01-.44-.28c0-.05-.08-.08-.12-.07a3.2 3.2 0 01-.82-.4c-.41-.24-.84-.47-.95-.52-.27-.11-1.51-.85-2.48-1.47-.41-.27-.83-.54-.93-.58a4.9 4.9 0 01-.57-.35l-.71-.5-.7-.5-.94-.66c-.91-.65-3.81-3-3.88-3.18a3.61 3.61 0 00-.47-.41 3 3 0 01-.49-.46 2.37 2.37 0 00-.41-.41A23.7 23.7 0 01269 121l-.74-.81a57.83 57.83 0 01-5.19-6.61 75.63 75.63 0 01-6.82-12.32 39.41 39.41 0 01-1.87-4.5c-.16-.56-.39-1.33-.52-1.71a43.87 43.87 0 01-1.39-7.65 38.36 38.36 0 010-6.3.48.48 0 000-.29 1.78 1.78 0 01.06-.59 4.53 4.53 0 00.08-.54s.2-1.51.24-1.61a1 1 0 000-.26 36.82 36.82 0 014.31-12c.12-.21.31-.54.41-.74s.3-.51.42-.69l.43-.64a47.11 47.11 0 013.58-4.63 1.71 1.71 0 00.32-.34 37.24 37.24 0 013.24-3.14l.92-.75c.91-.74 2.85-2.15 3.71-2.68l1.67-1a46.77 46.77 0 016.72-3.07c.66-.21 1.55-.49 2-.64a39.14 39.14 0 019-1.49 3.51 3.51 0 00.67 0c.14-.07 4 .05 4.79.13.35 0 .77.08.92.09.5 0 3.36.47 3.56.57a.42.42 0 00.28 0 2.46 2.46 0 01.67.11l1.33.33a50.14 50.14 0 018.07 2.87 33.66 33.66 0 013.08 1.54.9.9 0 00.3.16c.38.16 3 1.74 3.54 2.15.11.08.23.14.26.12s.07-.14.08-.28c0-.68.5-3.69.62-4.09a.9.9 0 00.08-.33 6.08 6.08 0 01.18-.88 50.06 50.06 0 014.11-11.52 4.6 4.6 0 01.46-.79.4.4 0 00.13-.24c.05-.21 1.55-2.7 1.85-3.09.1-.12.33-.46.53-.76.43-.64 2.83-3.69 3-3.76a3.51 3.51 0 00.47-.48 39.14 39.14 0 016.95-6c.38-.22 1.16-.72 1.75-1.09a46.77 46.77 0 016.67-3.18l1.86-.62a43.37 43.37 0 019.9-1.81 41 41 0 016.49.22l.93.11a8.35 8.35 0 01.89.14l1.08.2a40 40 0 015.27 1.48 37.46 37.46 0 016.1 2.83 1.4 1.4 0 00.24.13c.08 0 1.22.73 1.38.85s.28.19.52.33a2.61 2.61 0 01.46.34.67.67 0 00.22.14 41.78 41.78 0 013.42 2.7 2.23 2.23 0 00.31.38 21.64 21.64 0 012.06 2 37.6 37.6 0 014.17 5.27c.36.56.79 1.23 1 1.47s1.08 2 2 3.9a65.53 65.53 0 013.27 7.66c.16.46.46 1.33.69 1.94a64.22 64.22 0 012.81 11.9c0 .34.11.83.14 1.09a23.7 23.7 0 01.23 2.5 2.37 2.37 0 00.05.58 3 3 0 010 .68 3.61 3.61 0 000 .62c.08.16 0 3.91-.06 5 0 .38-.07.89-.09 1.15s0 .64-.07.86-.06.61-.07.86a5.35 5.35 0 01-.08.65 10 10 0 00-.16 1.09c-.11.91-.4 2.64-.48 2.91 0 .08-.12.53-.2 1a3.2 3.2 0 01-.23.89.09.09 0 000 .12 53.78 53.78 0 01-1.41 5.62c-.09.32-.39 1.25-.64 2.06-.49 1.58-2.66 7.64-3.42 9.54-.7 1.74-1.68 4.11-1.87 4.56-.1.22-.25.59-.35.81-.45 1.1-.66 1.6-1.11 2.61-.26.6-.5 1.15-.53 1.23s-.21.52-.42 1-.43 1-.49 1.11c-.32.78-.45 1.08-1 2.36-.34.75-.63 1.41-.65 1.45s-.21.48-.43 1-.42.92-.43 1-.38.88-.84 1.87-.94 2.09-1.11 2.44-.34.76-.4.92-.42 1-.82 1.81-.79 1.73-.89 2c-.32.8-.38.93-1 2.25-.33.71-.66 1.43-.72 1.59s-.17.41-.23.56-.28.65-.49 1.11l-.4.9-.43 1c-.22.5-.5 1.13-.61 1.39l-.37.83-.32.76c-.08.23-.52 1.22-1 2.21s-.86 2-.93 2.14-.29.71-.5 1.17-.4.93-.44 1.06-.32.79-.63 1.49c-.62 1.41-1.35 3.13-1.6 3.77-.08.23-.39 1-.67 1.65-.7 1.69-2.48 6-2.78 6.74-.14.34-.37.95-.53 1.35-.56 1.46-1.68 4.26-1.73 4.3a10.73 10.73 0 01-1.46-.56zM71.68 465.6c-.11-.8-.29-2.09-.39-2.87s-.22-1.55-.23-1.71-.32-2.18-1-6.43c-.11-.69-.22-1.43-.25-1.66-.09-.6-.37-2.33-.62-3.81-.12-.71-.24-1.42-.25-1.58s-.1-.6-.17-1-.16-.89-.18-1.11-.2-1.22-.38-2.23-.36-2-.4-2.28c-.09-.6-.09-.6-.41-2.34-.16-.84-.28-1.56-.28-1.6s-.07-.45-.16-.92-.18-1-.2-1.13-.06-.41-.09-.57-.16-.89-.3-1.62c-.26-1.34-.29-1.47-.4-2.28 0-.25-.21-1.15-.37-2s-.33-1.7-.34-1.84-.09-.58-.16-.93c-.62-3.32-.81-4.32-.82-4.44s-.08-.49-.17-.92-.16-.84-.17-.91-.12-.78-.27-1.54c-.24-1.3-.29-1.61-.41-2.39 0-.15-.11-.66-.2-1.13s-.2-1.13-.26-1.48-.14-.91-.21-1.24-.12-.7-.14-.82-.08-.56-.15-1-.16-.92-.19-1.12c-.24-1.55-.55-3.68-.69-4.64-.27-1.9-.9-7.93-1-9.48 0-.8-.11-1.71-.13-2 0-.56-.1-3.2-.09-4.09v-.86a1.13 1.13 0 01.05-.49.1.1 0 000-.13 3 3 0 010-.86v-1c0-.27.09-1.63.21-2.71.06-.46.11-.93.1-1a4.61 4.61 0 01.06-.63c0-.23.09-.6.13-.8s.09-.56.13-.8.12-.71.17-1.07c.17-1 1-4.47 1.07-4.6a3.4 3.4 0 00.15-.56 2.86 2.86 0 01.19-.61 2.23 2.23 0 00.18-.52 22.3 22.3 0 01.77-2.24l.38-1a54.43 54.43 0 013.42-7.13 71.19 71.19 0 017.56-10.89 37.09 37.09 0 013-3.45c.41-.37 1-.88 1.22-1.15a41.29 41.29 0 016.01-4.35 36.11 36.11 0 015.33-2.6.45.45 0 00.26-.11 1.67 1.67 0 01.52-.2 4.27 4.27 0 00.49-.16s1.36-.46 1.46-.47a.94.94 0 00.24-.07 34.65 34.65 0 0111.94-1.36h.8l.76.06.72.1a44.34 44.34 0 015.32 1.08 1.61 1.61 0 00.42.13 35 35 0 014 1.43l1 .46c1 .46 3 1.52 3.8 2l1.56 1a44 44 0 015.39 4.4c.45.47 1.06 1.1 1.36 1.39a36.84 36.84 0 015 7 3.3 3.3 0 00.32.55c.12.09 1.63 3.42 1.88 4.1.11.32.25.68.31.82.19.43 1 3 1 3.24a.39.39 0 00.07.25 2.31 2.31 0 01.19.61c.07.31.19.87.28 1.26a47.19 47.19 0 01.94 8 31.68 31.68 0 010 3.24.84.84 0 000 .32c0 .39-.23 3.25-.34 3.88v.27c0 .02.15 0 .27 0 .59-.25 3.33-1.11 3.71-1.17a.84.84 0 00.31-.07 5.72 5.72 0 01.81-.22 47.11 47.11 0 0111.44-1.32 4.33 4.33 0 01.86.06.38.38 0 00.26 0c.2 0 2.92.19 3.38.28.14 0 .53.09.86.13.72.1 4.29.85 4.41.95a3.3 3.3 0 00.6.19 36.84 36.84 0 017.92 3.39c.35.23 1.09.68 1.65 1a44 44 0 015.46 4.31l1.3 1.31a40.82 40.82 0 015.64 7.6 38.57 38.57 0 012.51 5.57l.29.84a7.86 7.86 0 01.25.81l.28 1a37.63 37.63 0 01.94 5.07 35.25 35.25 0 01.15 6.33 1.32 1.32 0 000 .26c0 .07-.11 1.34-.14 1.51s0 .31-.06.58a2.45 2.45 0 01-.1.53.63.63 0 000 .24 39.32 39.32 0 01-.86 4 2.1 2.1 0 00-.15.48 20.37 20.37 0 01-.85 2.58 35.39 35.39 0 01-2.72 5.71c-.32.54-.71 1.18-.84 1.44s-1.25 1.75-2.47 3.31a61.68 61.68 0 01-5.11 5.95c-.32.32-.93.94-1.35 1.39a60.45 60.45 0 01-8.82 7.35l-.86.58a22.3 22.3 0 01-2 1.24 2.23 2.23 0 00-.47.29 2.86 2.86 0 01-.55.31 3.4 3.4 0 00-.52.27c-.11.13-3.29 1.65-4.26 2l-1 .4-.76.3-.76.3a5 5 0 01-.59.2 9.4 9.4 0 00-1 .32c-.82.28-2.4.76-2.66.81-.08 0-.49.12-.92.25a3 3 0 01-.84.18.09.09 0 00-.12 0 50.61 50.61 0 01-5.33 1.14l-2 .32c-1.54.25-7.56.93-9.47 1.08-1.76.13-4.17.29-4.63.32h-.83c-1.12.08-1.63.1-2.66.15l-1.26.06h-2.14c-.79.05-1.1.07-2.42.12l-1.49.06h-2s-.9 0-1.92.07l-2.52.08h-.94c-.15 0-1 0-1.87.06l-2 .07c-.81.06-.94.06-2.31.1l-1.65.05h-3.64l-1.42.06h-1.63c-.22 0-1.25.07-2.27.11s-2 .09-2.19.11-.72.05-1.2.06-1 0-1.08.06-.8.06-1.52.09c-1.45.06-3.2.16-3.85.21l-1.67.12-6.85.45-1.36.11c-1.47.13-4.29.35-4.35.33a10.1 10.1 0 01-.39-.89zM4.74 227l-1.2-.9-.71-.54-2.73-2-.7-.51-1.63-1.16-.67-.48-.43-.3-.48-.34-1-.68-1-.69c-.25-.19-.25-.19-1-.7l-.69-.48-.4-.28-.49-.34-.24-.17-.71-.48c-.59-.39-.65-.43-1-.68l-.88-.6-.8-.55-.4-.28-1.94-1.32-.4-.27-.4-.27-.67-.46-1-.72-.49-.34-.64-.45-.53-.38-.35-.25-.42-.3-.48-.34-2-1.44c-.8-.6-3.25-2.56-3.86-3.1l-.8-.69c-.22-.19-1.21-1.13-1.54-1.46l-.32-.31a.59.59 0 01-.16-.2s0-.05 0 0a1.57 1.57 0 01-.32-.31l-.36-.39c-.11-.09-.57-.63-.92-1.07-.15-.19-.3-.38-.34-.41a2.39 2.39 0 01-.21-.25l-.25-.34-.24-.34-.33-.45c-.32-.44-1.3-2-1.31-2.07a1.76 1.76 0 00-.15-.26 1.49 1.49 0 01-.16-.29 1.16 1.16 0 00-.13-.26 11.57 11.57 0 01-.54-1.1l-.22-.49a28.24 28.24 0 01-1.38-3.87 36.94 36.94 0 01-1.25-6.76 19.25 19.25 0 01-.17-2.38v-.87a21.43 21.43 0 01.54-3.76 18.74 18.74 0 011-2.91.23.23 0 00.05-.13.87.87 0 01.12-.26 2.21 2.21 0 00.12-.24s.33-.67.36-.71a.49.49 0 00.06-.11 18.89 18.89 0 011.76-2.67 19 19 0 012.1-2.23l.31-.28.3-.26.3-.23a23 23 0 012.34-1.57.83.83 0 00.2-.11 18.18 18.18 0 012-1l.54-.2c.54-.2 1.65-.55 2.13-.67l.93-.21a22.84 22.84 0 013.59-.38h1a19.12 19.12 0 014.41.71 1.71 1.71 0 00.32.08c.08 0 1.86.65 2.2.8l.41.18c.23.09 1.48.74 1.56.81a.2.2 0 00.12.06 1.2 1.2 0 01.29.15l.57.36a24.49 24.49 0 013.29 2.58 16.44 16.44 0 011.19 1.19.44.44 0 00.12.12c.15.13 1.12 1.27 1.3 1.54 0 .05.08.1.1.1s.05-.06.08-.12c.12-.31.81-1.63.92-1.8a.44.44 0 00.09-.14 3 3 0 01.25-.32A24.45 24.45 0 014 164.28a2.24 2.24 0 01.3-.28.2.2 0 00.1-.09c.06-.09 1.14-1 1.34-1.14l.36-.27c.3-.23 1.88-1.27 2-1.28a1.71 1.71 0 00.29-.15 19.12 19.12 0 014.14-1.68l1-.23a22.84 22.84 0 013.47-.46h1a21.18 21.18 0 014.86.7 20 20 0 013 1.11l.42.2.39.21.47.26a19.53 19.53 0 012.21 1.5 18.29 18.29 0 012.39 2.26l.09.1.51.6.19.23a1.27 1.27 0 01.16.23.33.33 0 00.08.1 20.4 20.4 0 011.14 1.8 1.09 1.09 0 00.12.23 10.17 10.17 0 01.64 1.26 18.36 18.36 0 011.11 3.09c.08.31.18.69.22.83s.19 1.1.32 2.12a32 32 0 01.33 4.06v1a31.37 31.37 0 01-.51 5.93l-.1.53a11.57 11.57 0 01-.28 1.2 1.16 1.16 0 00-.07.28 1.49 1.49 0 01-.09.32 1.76 1.76 0 00-.09.29c0 .09-.59 1.81-.81 2.32l-.22.52c0 .11-.12.29-.17.39s-.12.27-.17.39a2.61 2.61 0 01-.14.24 4.88 4.88 0 00-.24.48c-.19.4-.59 1.16-.67 1.27s-.14.23-.25.43a1.57 1.57 0 01-.24.38v.05a26.26 26.26 0 01-1.53 2.39l-.61.86c-.46.64-2.46 3.14-3.06 3.87l-1.57 1.82-.29.32-.92 1-.44.49-.35.39-.4.44c-.27.31-.38.43-.84.94l-.52.57-.35.38-.35.38-.68.73-.89 1-.33.37c0 .06-.34.38-.66.71l-.72.78c-.27.32-.32.37-.81.89l-.58.63-.2.22-.4.44-.33.36-.35.38-.5.55-.3.33-.27.3c-.07.09-.43.49-.79.88l-.76.85c-.06.08-.24.28-.41.46s-.33.37-.37.42l-.52.59c-.51.56-1.11 1.24-1.33 1.5l-.57.66-2.33 2.69-.45.54c-.49.59-1.44 1.71-1.47 1.72a5.24 5.24 0 01-.61-.46zm512 0l-1.2-.9-.71-.54-2.73-2-.7-.51-1.63-1.16-.67-.48-.43-.3-.48-.34-1-.68-1-.69c-.25-.19-.25-.19-1-.7l-.69-.48-.4-.28-.49-.34-.24-.17-.71-.48c-.59-.39-.65-.43-1-.68l-.88-.6-.8-.55-.4-.28-1.94-1.32-.4-.27-.4-.27-.67-.46-1-.72-.49-.34-.64-.45-.53-.38-.35-.25-.42-.3-.48-.34-2-1.44c-.8-.6-3.25-2.56-3.86-3.1l-.8-.69c-.22-.19-1.21-1.13-1.54-1.46l-.32-.31a.59.59 0 01-.16-.2s0-.05 0 0a1.57 1.57 0 01-.32-.31l-.36-.39c-.11-.09-.57-.63-.92-1.07-.15-.19-.3-.38-.34-.41a2.39 2.39 0 01-.21-.25l-.25-.34-.24-.34-.33-.45c-.32-.44-1.3-2-1.31-2.07a1.76 1.76 0 00-.15-.26 1.49 1.49 0 01-.16-.29 1.16 1.16 0 00-.13-.26 11.57 11.57 0 01-.54-1.1l-.22-.49a28.24 28.24 0 01-1.38-3.87 36.94 36.94 0 01-1.25-6.76 19.25 19.25 0 01-.17-2.38v-.87a21.43 21.43 0 01.54-3.76 18.74 18.74 0 011-2.91.23.23 0 00.05-.13.87.87 0 01.12-.26 2.21 2.21 0 00.12-.24s.33-.67.36-.71a.49.49 0 00.06-.11 18 18 0 013.86-4.9l.31-.28.3-.26.3-.23a23 23 0 012.34-1.57.83.83 0 00.2-.11 18.18 18.18 0 012-1l.54-.2c.54-.2 1.65-.55 2.13-.67l.93-.21a22.84 22.84 0 013.59-.38h1a19.12 19.12 0 014.41.71 1.71 1.71 0 00.32.08c.08 0 1.86.65 2.2.8l.41.18c.23.09 1.48.74 1.56.81a.2.2 0 00.12.06 1.2 1.2 0 01.29.15l.57.36a24.49 24.49 0 013.29 2.58 16.44 16.44 0 011.19 1.19.44.44 0 00.12.12c.15.13 1.12 1.27 1.3 1.54 0 .05.08.1.1.1s.05-.06.08-.12c.12-.31.81-1.63.92-1.8a.44.44 0 00.09-.14 3 3 0 01.22-.38 24.45 24.45 0 013.69-4.7 2.24 2.24 0 01.33-.29.2.2 0 00.1-.09c.06-.09 1.14-1 1.34-1.14l.36-.27c.3-.23 1.88-1.27 2-1.28a1.71 1.71 0 00.29-.15 19.12 19.12 0 014.14-1.68l1-.23a22.84 22.84 0 013.58-.44h1a21.18 21.18 0 014.86.7 20 20 0 013 1.11l.42.2.39.21.47.26a19.53 19.53 0 012.21 1.5 18.29 18.29 0 012.39 2.26l.09.1.51.6.19.23a1.27 1.27 0 01.16.23.33.33 0 00.08.1 20.4 20.4 0 011.17 1.78 1.09 1.09 0 00.12.23 10.17 10.17 0 01.64 1.26 18.36 18.36 0 011.11 3.09c.08.31.18.69.22.83s.19 1.1.32 2.12a32 32 0 01.33 4.06v1a31.37 31.37 0 01-.51 5.93l-.1.53a11.57 11.57 0 01-.28 1.2 1.16 1.16 0 00-.07.28 1.49 1.49 0 01-.09.32 1.76 1.76 0 00-.09.29c0 .09-.59 1.81-.81 2.32l-.22.52c0 .11-.12.29-.17.39s-.12.27-.17.39a2.61 2.61 0 01-.14.29 4.88 4.88 0 00-.24.48c-.19.4-.59 1.16-.67 1.27s-.14.23-.25.43a1.57 1.57 0 01-.24.38v.05a26.26 26.26 0 01-1.52 2.38l-.61.86c-.47.66-2.42 3.13-3.06 3.89l-1.57 1.82-.29.32-.92 1-.44.49-.35.39-.4.44c-.27.31-.38.43-.84.94l-.52.57-.35.38-.35.38-.68.73-.89 1-.33.37c0 .06-.34.38-.66.71l-.72.78c-.27.32-.32.37-.81.89l-.58.63-.2.22-.4.44-.33.36-.35.38-.5.55-.3.33-.27.3c-.07.09-.43.49-.79.88l-.76.85c-.06.08-.24.28-.41.46s-.33.37-.37.42l-.52.59c-.51.56-1.11 1.24-1.33 1.5l-.57.66-2.33 2.69-.45.54c-.49.59-1.44 1.71-1.47 1.72a5.24 5.24 0 01-.72-.47z" fill="#fff" opacity=".1"/></svg>