<svg xmlns="http://www.w3.org/2000/svg" width="512" height="512"><g opacity=".25" fill="#fff" stroke="#000" stroke-miterlimit="10"><path d="M275.718 102.753l108.363-73.45 49.1 72.438-108.364 73.45z"/><path d="M326.06 174.33l23.79-78.89 82.09 7.12-105.88 71.77z"/><path d="M276.96 101.9l85.46 12.08 20.42-83.85-105.88 71.77z"/></g><g opacity=".25" fill="#fff" stroke="#000" stroke-miterlimit="10"><path d="M469.91 227.86h84.19v56.27h-84.19z"/><path d="M470.87 284.14L512 250.73l41.13 33.41h-82.26z"/><path d="M470.87 227.86L512 265.13l41.13-37.27h-82.26z"/></g><g opacity=".25" fill="#fff" stroke="#000" stroke-miterlimit="10"><path d="M-42.09 227.86H42.1v56.27h-84.19z"/><path d="M-41.13 284.14L0 250.73l41.13 33.41h-82.26z"/><path d="M-41.13 227.86L0 265.13l41.13-37.27h-82.26z"/></g><g opacity=".25" fill="#fff" stroke="#000" stroke-miterlimit="10"><path d="M72.355 374.46l75.663 36.92-24.676 50.57-75.663-36.92z"/><path d="M48.56 425.46l51.61-11.99 22.32 48.06-73.93-36.07z"/><path d="M73.23 374.89l20.63 51.53 53.3-15.46-73.93-36.07z"/></g></svg>